<?xml version="1.0" encoding="utf-8"?>
<!-- Generator: Adobe Illustrator 23.0.3, SVG Export Plug-In . SVG Version: 6.00 Build 0)  -->
<svg version="1.1" id="Badges" xmlns="http://www.w3.org/2000/svg" xmlns:xlink="http://www.w3.org/1999/xlink" x="0px" y="0px"
	 viewBox="44.2 -25 128 40" enable-background="new 44.2 -25 128 40" xml:space="preserve">
<g>
	<path d="M168.2,15h-120c-2.2,0-4-1.8-4-4v-32c0-2.2,1.8-4,4-4h120c2.2,0,4,1.8,4,4v32C172.2,13.2,170.4,15,168.2,15z"/>
	<path fill="#FFFFFF" d="M71.2-5.2c0-3.1,2.6-4.6,2.7-4.7c-1.5-2.1-3.7-2.4-4.5-2.5c-1.9-0.2-3.8,1.1-4.7,1.1c-1,0-2.5-1.1-4.1-1.1
		c-2.1,0-4,1.2-5.1,3.1C53.2-5.5,54.9,0.1,57,3.2c1.1,1.5,2.3,3.2,3.9,3.1c1.6-0.1,2.2-1,4.1-1c1.9,0,2.4,1,4.1,1
		c1.7,0,2.8-1.5,3.8-3c1.2-1.7,1.7-3.4,1.7-3.5C74.5-0.3,71.2-1.5,71.2-5.2z"/>
	<path fill="#FFFFFF" d="M68.1-14.4c0.8-1.1,1.4-2.5,1.3-4c-1.2,0.1-2.8,0.8-3.6,1.9c-0.8,0.9-1.5,2.4-1.3,3.8
		C65.8-12.6,67.2-13.4,68.1-14.4z"/>
	<path fill="#FFFFFF" d="M94,6.1h-2.2l-1.2-3.8h-4.2l-1.1,3.8h-2.1l4.2-12.9h2.6L94,6.1z M90.2,0.7l-1.1-3.4C89-3,88.8-3.8,88.5-5.1
		h0c-0.1,0.5-0.3,1.4-0.6,2.4l-1.1,3.4H90.2z"/>
	<path fill="#FFFFFF" d="M104.7,1.4c0,1.6-0.4,2.8-1.3,3.8c-0.8,0.8-1.7,1.2-2.9,1.2c-1.2,0-2.1-0.4-2.6-1.3h0v4.9h-2.1v-10
		c0-1,0-2-0.1-3.1h1.8l0.1,1.5h0c0.7-1.1,1.7-1.7,3.1-1.7c1.1,0,2,0.4,2.7,1.3C104.3-1.2,104.7-0.1,104.7,1.4z M102.6,1.4
		c0-0.9-0.2-1.7-0.6-2.2c-0.4-0.6-1-0.9-1.8-0.9c-0.5,0-1,0.2-1.4,0.5c-0.4,0.3-0.7,0.8-0.8,1.3c-0.1,0.3-0.1,0.5-0.1,0.6v1.6
		c0,0.7,0.2,1.2,0.6,1.7c0.4,0.5,1,0.7,1.6,0.7c0.8,0,1.4-0.3,1.8-0.9C102.4,3.2,102.6,2.4,102.6,1.4z"/>
	<path fill="#FFFFFF" d="M115.4,1.4c0,1.6-0.4,2.8-1.3,3.8c-0.8,0.8-1.7,1.2-2.9,1.2c-1.2,0-2.1-0.4-2.6-1.3h0v4.9h-2.1v-10
		c0-1,0-2-0.1-3.1h1.8l0.1,1.5h0c0.7-1.1,1.7-1.7,3.1-1.7c1.1,0,2,0.4,2.7,1.3C115-1.2,115.4-0.1,115.4,1.4z M113.3,1.4
		c0-0.9-0.2-1.7-0.6-2.2c-0.4-0.6-1-0.9-1.8-0.9c-0.5,0-1,0.2-1.4,0.5c-0.4,0.3-0.7,0.8-0.8,1.3c-0.1,0.3-0.1,0.5-0.1,0.6v1.6
		c0,0.7,0.2,1.2,0.6,1.7c0.4,0.5,1,0.7,1.6,0.7c0.8,0,1.4-0.3,1.8-0.9C113.1,3.2,113.3,2.4,113.3,1.4z"/>
	<path fill="#FFFFFF" d="M127.4,2.5c0,1.1-0.4,2-1.1,2.7c-0.8,0.8-2,1.1-3.5,1.1c-1.4,0-2.5-0.3-3.3-0.8l0.5-1.7
		c0.9,0.5,1.9,0.8,3,0.8c0.8,0,1.4-0.2,1.8-0.5c0.4-0.4,0.6-0.8,0.6-1.4c0-0.5-0.2-1-0.5-1.3c-0.4-0.4-1-0.7-1.8-1
		c-2.3-0.8-3.4-2.1-3.4-3.7c0-1.1,0.4-1.9,1.2-2.6c0.8-0.7,1.8-1,3.2-1c1.2,0,2.1,0.2,2.9,0.6l-0.5,1.7c-0.7-0.4-1.5-0.6-2.5-0.6
		c-0.7,0-1.3,0.2-1.7,0.5c-0.3,0.3-0.5,0.7-0.5,1.2c0,0.5,0.2,0.9,0.6,1.3c0.3,0.3,1,0.6,1.9,1c1.1,0.4,1.9,1,2.5,1.6
		C127.1,0.9,127.4,1.6,127.4,2.5z"/>
	<path fill="#FFFFFF" d="M134.2-1.6h-2.3v4.5c0,1.1,0.4,1.7,1.2,1.7c0.4,0,0.7,0,0.9-0.1l0.1,1.6c-0.4,0.2-0.9,0.2-1.6,0.2
		c-0.8,0-1.5-0.2-1.9-0.7c-0.5-0.5-0.7-1.3-0.7-2.5v-4.7h-1.4v-1.6h1.4v-1.7l2-0.6v2.3h2.3V-1.6z"/>
	<path fill="#FFFFFF" d="M144.5,1.4c0,1.4-0.4,2.6-1.2,3.5c-0.9,0.9-2,1.4-3.4,1.4c-1.4,0-2.5-0.5-3.3-1.4c-0.8-0.9-1.2-2-1.2-3.4
		c0-1.4,0.4-2.6,1.3-3.5c0.8-0.9,2-1.4,3.4-1.4c1.4,0,2.5,0.5,3.3,1.4C144.1-1.1,144.5,0,144.5,1.4z M142.3,1.5
		c0-0.9-0.2-1.6-0.6-2.2c-0.4-0.7-1.1-1.1-1.9-1.1c-0.8,0-1.5,0.4-1.9,1.1c-0.4,0.6-0.6,1.4-0.6,2.2c0,0.9,0.2,1.6,0.6,2.2
		c0.4,0.7,1.1,1.1,1.9,1.1c0.8,0,1.4-0.4,1.9-1.1C142.1,3.1,142.3,2.3,142.3,1.5z"/>
	<path fill="#FFFFFF" d="M151.2-1.4c-0.2,0-0.4-0.1-0.7-0.1c-0.7,0-1.3,0.3-1.7,0.8c-0.3,0.5-0.5,1.1-0.5,1.8v4.9h-2.1l0-6.4
		c0-1.1,0-2-0.1-2.9h1.8l0.1,1.8h0.1c0.2-0.6,0.6-1.1,1-1.5c0.5-0.3,1-0.5,1.5-0.5c0.2,0,0.4,0,0.5,0V-1.4z"/>
	<path fill="#FFFFFF" d="M160.4,1c0,0.4,0,0.7-0.1,0.9h-6.2c0,0.9,0.3,1.6,0.9,2.1c0.5,0.4,1.2,0.7,2,0.7c0.9,0,1.8-0.1,2.5-0.4
		l0.3,1.4c-0.9,0.4-1.9,0.6-3.1,0.6c-1.4,0-2.6-0.4-3.4-1.3c-0.8-0.8-1.2-2-1.2-3.4c0-1.4,0.4-2.6,1.1-3.5c0.8-1,1.9-1.5,3.3-1.5
		c1.3,0,2.4,0.5,3,1.5C160.2-1.1,160.4-0.1,160.4,1z M158.5,0.5c0-0.6-0.1-1.1-0.4-1.6c-0.4-0.6-0.9-0.9-1.6-0.9
		c-0.7,0-1.2,0.3-1.6,0.8c-0.3,0.4-0.5,1-0.6,1.6H158.5z"/>
</g>
<g>
	<path fill="#FFFFFF" d="M86-13.3l-0.6,1.9h-1l2.1-6.4h1.2l2.1,6.4h-1.1l-0.6-1.9H86z M88-14.1l-0.6-1.7c-0.1-0.4-0.2-0.8-0.3-1.2h0
		c-0.1,0.4-0.2,0.8-0.3,1.2l-0.6,1.7H88z"/>
	<path fill="#FFFFFF" d="M91.3-16l0.8,2.5c0.1,0.4,0.3,0.8,0.3,1.2h0c0.1-0.4,0.2-0.8,0.4-1.2l0.8-2.5h1.1l-1.8,4.6h-1L90.2-16H91.3
		z"/>
	<path fill="#FFFFFF" d="M98.3-11.4L98.2-12h0c-0.3,0.4-0.8,0.7-1.4,0.7c-0.9,0-1.4-0.7-1.4-1.3c0-1.1,1-1.7,2.8-1.7v-0.1
		c0-0.3-0.1-0.9-1-0.9c-0.4,0-0.9,0.1-1.2,0.3l-0.2-0.7c0.4-0.2,0.9-0.4,1.6-0.4c1.4,0,1.8,0.9,1.8,1.9v1.7c0,0.4,0,0.8,0.1,1.1
		H98.3z M98.1-13.7c-0.9,0-1.8,0.2-1.8,1c0,0.5,0.3,0.7,0.7,0.7c0.5,0,0.9-0.3,1-0.7c0-0.1,0-0.2,0-0.3V-13.7z"/>
	<path fill="#FFFFFF" d="M101.8-17.3c0,0.3-0.2,0.6-0.6,0.6c-0.3,0-0.6-0.3-0.6-0.6c0-0.3,0.2-0.6,0.6-0.6
		C101.6-17.9,101.8-17.6,101.8-17.3z M100.7-11.4V-16h1v4.6H100.7z"/>
	<path fill="#FFFFFF" d="M103.3-18.2h1v6.7h-1V-18.2z"/>
	<path fill="#FFFFFF" d="M108.5-11.4l-0.1-0.5h0c-0.3,0.4-0.8,0.7-1.4,0.7c-0.9,0-1.4-0.7-1.4-1.3c0-1.1,1-1.7,2.8-1.7v-0.1
		c0-0.3-0.1-0.9-1-0.9c-0.4,0-0.9,0.1-1.2,0.3l-0.2-0.7c0.4-0.2,0.9-0.4,1.6-0.4c1.4,0,1.8,0.9,1.8,1.9v1.7c0,0.4,0,0.8,0.1,1.1
		H108.5z M108.4-13.7c-0.9,0-1.8,0.2-1.8,1c0,0.5,0.3,0.7,0.7,0.7c0.5,0,0.9-0.3,1-0.7c0-0.1,0-0.2,0-0.3V-13.7z"/>
	<path fill="#FFFFFF" d="M110.9-11.4c0-0.3,0-0.8,0-1.2v-5.5h1v2.8h0c0.3-0.5,0.8-0.8,1.5-0.8c1.1,0,1.9,0.9,1.9,2.3
		c0,1.7-1,2.5-2.1,2.5c-0.6,0-1.2-0.2-1.5-0.8h0l0,0.7H110.9z M111.9-13.3c0,0.1,0,0.2,0,0.3c0.1,0.5,0.6,0.9,1.1,0.9
		c0.8,0,1.3-0.6,1.3-1.6c0-0.9-0.4-1.6-1.3-1.6c-0.5,0-1,0.4-1.2,0.9c0,0.1,0,0.2,0,0.3V-13.3z"/>
	<path fill="#FFFFFF" d="M116.7-18.2h1v6.7h-1V-18.2z"/>
	<path fill="#FFFFFF" d="M120-13.5c0,1,0.7,1.4,1.5,1.4c0.6,0,0.9-0.1,1.3-0.2l0.2,0.7c-0.3,0.2-0.9,0.3-1.6,0.3
		c-1.5,0-2.3-0.9-2.3-2.3c0-1.3,0.8-2.5,2.2-2.5c1.5,0,1.9,1.3,1.9,2.2c0,0.2,0,0.3,0,0.4H120z M122.2-14.2c0-0.5-0.2-1.2-1.1-1.2
		c-0.8,0-1.1,0.7-1.2,1.2H122.2z"/>
	<path fill="#FFFFFF" d="M131-13.8c0,1.7-1.2,2.5-2.3,2.5c-1.3,0-2.3-0.9-2.3-2.4c0-1.5,1-2.4,2.3-2.4C130.1-16.1,131-15.2,131-13.8
		z M127.4-13.7c0,0.9,0.5,1.7,1.3,1.7c0.7,0,1.3-0.7,1.3-1.7c0-0.8-0.4-1.7-1.3-1.7C127.8-15.4,127.4-14.5,127.4-13.7z"/>
	<path fill="#FFFFFF" d="M132.3-14.7c0-0.5,0-0.9,0-1.3h0.9l0.1,0.7h0c0.2-0.4,0.7-0.8,1.5-0.8c0.7,0,1.6,0.4,1.6,2v2.7h-1V-14
		c0-0.7-0.3-1.3-1-1.3c-0.5,0-0.9,0.4-1,0.8c0,0.1-0.1,0.2-0.1,0.4v2.7h-1V-14.7z"/>
	<path fill="#FFFFFF" d="M141.3-17.3v1.3h1.2v0.8h-1.2v2.3c0,0.6,0.2,0.9,0.6,0.9c0.2,0,0.4,0,0.5-0.1l0,0.8
		c-0.2,0.1-0.5,0.1-0.8,0.1c-0.4,0-0.7-0.1-1-0.4c-0.2-0.3-0.3-0.7-0.3-1.2v-2.3h-0.7V-16h0.7v-1.1L141.3-17.3z"/>
	<path fill="#FFFFFF" d="M143.7-18.2h1v2.8h0c0.1-0.2,0.3-0.4,0.6-0.6c0.2-0.1,0.5-0.2,0.8-0.2c0.7,0,1.6,0.5,1.6,2v2.7h-1V-14
		c0-0.7-0.3-1.3-1-1.3c-0.5,0-0.9,0.3-1,0.7c0,0.1-0.1,0.2-0.1,0.4v2.8h-1V-18.2z"/>
	<path fill="#FFFFFF" d="M150-13.5c0,1,0.7,1.4,1.5,1.4c0.6,0,0.9-0.1,1.3-0.2l0.2,0.7c-0.3,0.2-0.9,0.3-1.6,0.3
		c-1.5,0-2.3-0.9-2.3-2.3c0-1.3,0.8-2.5,2.2-2.5c1.5,0,1.9,1.3,1.9,2.2c0,0.2,0,0.3,0,0.4H150z M152.2-14.2c0-0.5-0.2-1.2-1.1-1.2
		c-0.8,0-1.1,0.7-1.2,1.2H152.2z"/>
</g>
</svg>
